<svg width="187" height="69" viewBox="0 0 187 69" version="1.1" xmlns="http://www.w3.org/2000/svg" xmlns:xlink="http://www.w3.org/1999/xlink" xml:space="preserve" xmlns:serif="http://www.serif.com/" style="fill-rule:evenodd;clip-rule:evenodd;stroke-linejoin:round;stroke-miterlimit:2;"><g transform="matrix(0.645327,0,0,0.645327,-164.599,-19.2253)"><g transform="matrix(50,0,0,50,255.125,71.3528)"><path d="M0.235,-0.431l0.35,0l-0,0.138l-0.35,0l-0,0.156l0.396,-0l0,0.137l-0.554,-0l0,-0.731l0.554,0l0,0.137l-0.396,0l0,0.163Z" style="fill:#00a86b;fill-rule:nonzero;"/></g><g transform="matrix(50,0,0,50,290.125,71.3528)"><path d="M0.718,-0.56c0.077,0 0.134,0.021 0.171,0.062c0.038,0.041 0.057,0.099 0.057,0.173l-0,0.325l-0.151,0l0,-0.325c0,-0.039 -0.01,-0.068 -0.03,-0.085c-0.019,-0.017 -0.045,-0.026 -0.077,-0.026c-0.027,0 -0.051,0.01 -0.072,0.03c-0.021,0.02 -0.032,0.053 -0.033,0.1l-0,0.306l-0.151,0l-0,-0.325c-0,-0.039 -0.01,-0.068 -0.03,-0.085c-0.019,-0.017 -0.045,-0.026 -0.076,-0.026c-0.029,0 -0.053,0.011 -0.075,0.032c-0.02,0.021 -0.031,0.059 -0.031,0.113l-0.001,0.291l-0.149,0l0,-0.55l0.149,0l0,0.05c0.019,-0.017 0.043,-0.032 0.07,-0.043c0.027,-0.011 0.052,-0.017 0.075,-0.017c0.077,0 0.136,0.025 0.177,0.075c0.021,-0.023 0.046,-0.042 0.077,-0.055c0.031,-0.013 0.064,-0.02 0.1,-0.02Z" style="fill:#00a86b;fill-rule:nonzero;"/></g><g transform="matrix(50,0,0,50,341.725,71.3528)"><path d="M0.718,-0.56c0.077,0 0.134,0.021 0.171,0.062c0.038,0.041 0.057,0.099 0.057,0.173l-0,0.325l-0.151,0l0,-0.325c0,-0.039 -0.01,-0.068 -0.03,-0.085c-0.019,-0.017 -0.045,-0.026 -0.077,-0.026c-0.027,0 -0.051,0.01 -0.072,0.03c-0.021,0.02 -0.032,0.053 -0.033,0.1l-0,0.306l-0.151,0l-0,-0.325c-0,-0.039 -0.01,-0.068 -0.03,-0.085c-0.019,-0.017 -0.045,-0.026 -0.076,-0.026c-0.029,0 -0.053,0.011 -0.075,0.032c-0.02,0.021 -0.031,0.059 -0.031,0.113l-0.001,0.291l-0.149,0l0,-0.55l0.149,0l0,0.05c0.019,-0.017 0.043,-0.032 0.07,-0.043c0.027,-0.011 0.052,-0.017 0.075,-0.017c0.077,0 0.136,0.025 0.177,0.075c0.021,-0.023 0.046,-0.042 0.077,-0.055c0.031,-0.013 0.064,-0.02 0.1,-0.02Z" style="fill:#00a86b;fill-rule:nonzero;"/></g><g transform="matrix(50,0,0,50,393.325,71.3528)"><path d="M0.342,0.014c-0.043,-0 -0.087,-0.009 -0.133,-0.027c-0.045,-0.018 -0.084,-0.049 -0.117,-0.092c-0.033,-0.042 -0.049,-0.099 -0.049,-0.168c-0,-0.069 0.016,-0.125 0.049,-0.168c0.033,-0.043 0.073,-0.073 0.119,-0.091c0.046,-0.018 0.09,-0.027 0.131,-0.027c0.048,0 0.094,0.011 0.137,0.032c0.043,0.021 0.079,0.053 0.106,0.094c0.028,0.041 0.043,0.09 0.044,0.147c-0,0.017 -0,0.032 -0.001,0.045c-0.001,0.013 -0.001,0.021 -0.002,0.024l-0.434,0c0.008,0.039 0.028,0.065 0.06,0.079c0.032,0.014 0.062,0.021 0.09,0.021c0.036,0 0.065,-0.006 0.086,-0.019c0.021,-0.013 0.04,-0.028 0.055,-0.045l0.116,0.067c-0.063,0.085 -0.148,0.128 -0.257,0.128Zm-0.001,-0.442c-0.041,0 -0.075,0.01 -0.101,0.031c-0.026,0.02 -0.041,0.045 -0.044,0.074l0.275,0c-0.002,-0.017 -0.009,-0.034 -0.02,-0.05c-0.011,-0.016 -0.027,-0.029 -0.046,-0.039c-0.019,-0.011 -0.04,-0.016 -0.064,-0.016Z" style="fill:#00a86b;fill-rule:nonzero;"/></g><g transform="matrix(50,0,0,50,427.375,71.3528)"><path d="M0.404,-0.414c-0.02,-0.002 -0.044,0.001 -0.073,0.008c-0.029,0.007 -0.055,0.023 -0.079,0.049c-0.024,0.026 -0.036,0.064 -0.036,0.114l0,0.243l-0.149,0l0,-0.55l0.149,0l0,0.073c0.025,-0.033 0.055,-0.055 0.091,-0.066c0.035,-0.012 0.068,-0.018 0.097,-0.017l0,0.146Z" style="fill:#00a86b;fill-rule:nonzero;"/></g><g transform="matrix(50,0,0,50,448.575,71.3528)"><path d="M0.296,0.013c-0.1,-0 -0.186,-0.029 -0.258,-0.086l0.078,-0.104c0.024,0.017 0.052,0.031 0.084,0.042c0.032,0.011 0.063,0.017 0.094,0.017c0.023,0 0.042,-0.005 0.056,-0.014c0.016,-0.009 0.023,-0.021 0.023,-0.035c0,-0.014 -0.009,-0.024 -0.026,-0.029c-0.016,-0.006 -0.033,-0.01 -0.049,-0.012c-0.016,-0.003 -0.026,-0.004 -0.031,-0.005c-0.04,-0.007 -0.075,-0.015 -0.104,-0.024c-0.028,-0.009 -0.055,-0.026 -0.079,-0.05c-0.023,-0.024 -0.035,-0.057 -0.035,-0.099c0,-0.069 0.025,-0.116 0.076,-0.139c0.05,-0.023 0.1,-0.035 0.151,-0.035c0.043,0 0.083,0.006 0.12,0.019c0.037,0.013 0.073,0.033 0.109,0.06l-0.078,0.102c-0.026,-0.015 -0.052,-0.028 -0.077,-0.037c-0.025,-0.009 -0.052,-0.014 -0.079,-0.014c-0.017,0 -0.033,0.004 -0.048,0.011c-0.016,0.007 -0.024,0.017 -0.024,0.03c0,0.016 0.011,0.027 0.033,0.034c0.021,0.007 0.045,0.012 0.071,0.015c0.047,0.008 0.084,0.016 0.112,0.025c0.028,0.009 0.053,0.025 0.075,0.048c0.021,0.024 0.032,0.058 0.032,0.101c0,0.057 -0.02,0.101 -0.059,0.132c-0.039,0.031 -0.095,0.047 -0.167,0.047Z" style="fill:#00a86b;fill-rule:nonzero;"/></g><g transform="matrix(50,0,0,50,477.175,71.3528)"><path d="M0.341,0.013c-0.054,-0 -0.104,-0.013 -0.15,-0.039c-0.045,-0.025 -0.081,-0.06 -0.108,-0.104c-0.027,-0.044 -0.04,-0.092 -0.04,-0.144c-0,-0.051 0.013,-0.099 0.04,-0.143c0.027,-0.044 0.063,-0.079 0.108,-0.104c0.046,-0.026 0.096,-0.039 0.15,-0.039c0.054,0 0.104,0.013 0.15,0.039c0.046,0.025 0.083,0.06 0.11,0.104c0.026,0.044 0.04,0.092 0.04,0.143c0,0.052 -0.014,0.1 -0.04,0.144c-0.027,0.044 -0.064,0.079 -0.11,0.105c-0.046,0.025 -0.096,0.038 -0.15,0.038Zm0,-0.442c-0.027,0 -0.053,0.007 -0.076,0.021c-0.023,0.013 -0.042,0.032 -0.055,0.055c-0.013,0.024 -0.02,0.05 -0.02,0.079c0,0.03 0.007,0.057 0.02,0.08c0.013,0.024 0.031,0.043 0.054,0.056c0.023,0.014 0.048,0.021 0.077,0.021c0.028,-0 0.054,-0.007 0.077,-0.021c0.023,-0.013 0.041,-0.032 0.054,-0.056c0.013,-0.024 0.02,-0.051 0.02,-0.08c0,-0.029 -0.007,-0.055 -0.02,-0.079c-0.013,-0.023 -0.031,-0.042 -0.054,-0.055c-0.023,-0.014 -0.049,-0.021 -0.077,-0.021Z" style="fill:#00a86b;fill-rule:nonzero;"/></g><g transform="matrix(50,0,0,50,511.875,71.3528)"><path d="M0.364,-0.56c0.076,0 0.131,0.02 0.165,0.061c0.035,0.041 0.052,0.099 0.052,0.174l-0,0.325l-0.153,0l-0,-0.325c-0,-0.074 -0.035,-0.111 -0.106,-0.111c-0.027,0 -0.052,0.011 -0.074,0.033c-0.022,0.021 -0.032,0.059 -0.031,0.112l-0,0.291l-0.149,0l-0,-0.55l0.149,0l-0,0.049c0.018,-0.018 0.041,-0.032 0.068,-0.043c0.027,-0.011 0.054,-0.016 0.079,-0.016Z" style="fill:#00a86b;fill-rule:nonzero;"/></g><g transform="matrix(50,0,0,50,255.125,121.353)"><path d="M0.235,-0.431l0.35,0l-0,0.138l-0.35,0l-0,0.156l0.396,-0l0,0.137l-0.554,-0l0,-0.731l0.554,0l0,0.137l-0.396,0l0,0.163Z" style="fill:#00a86b;fill-rule:nonzero;"/></g><g transform="matrix(50,0,0,50,290.125,121.353)"><path d="M0.364,-0.56c0.076,0 0.131,0.02 0.165,0.061c0.035,0.041 0.052,0.099 0.052,0.174l-0,0.325l-0.153,0l-0,-0.325c-0,-0.074 -0.035,-0.111 -0.106,-0.111c-0.027,0 -0.052,0.011 -0.074,0.033c-0.022,0.021 -0.032,0.059 -0.031,0.112l-0,0.291l-0.149,0l-0,-0.55l0.149,0l-0,0.049c0.018,-0.018 0.041,-0.032 0.068,-0.043c0.027,-0.011 0.054,-0.016 0.079,-0.016Z" style="fill:#00a86b;fill-rule:nonzero;"/></g><g transform="matrix(50,0,0,50,323.025,121.353)"><path d="M0.634,-0.049c0,0.079 -0.024,0.142 -0.074,0.187c-0.049,0.046 -0.117,0.069 -0.204,0.069c-0.105,-0 -0.192,-0.028 -0.263,-0.083l0.073,-0.106c0.023,0.018 0.049,0.033 0.08,0.044c0.031,0.011 0.064,0.017 0.099,0.017c0.094,-0 0.141,-0.043 0.141,-0.128l-0,-0.009c-0.04,0.033 -0.091,0.049 -0.154,0.049c-0.058,-0 -0.109,-0.012 -0.153,-0.037c-0.044,-0.024 -0.078,-0.057 -0.101,-0.099c-0.023,-0.042 -0.035,-0.088 -0.035,-0.139c-0,-0.051 0.012,-0.098 0.035,-0.139c0.023,-0.042 0.057,-0.075 0.1,-0.1c0.044,-0.025 0.095,-0.037 0.154,-0.037c0.063,0 0.114,0.016 0.154,0.049l-0,-0.039l0.148,0l-0,0.501Zm-0.293,-0.086c0.028,0 0.053,-0.006 0.076,-0.019c0.023,-0.013 0.042,-0.031 0.055,-0.054c0.013,-0.023 0.02,-0.049 0.02,-0.076c-0,-0.028 -0.007,-0.053 -0.02,-0.076c-0.013,-0.023 -0.032,-0.04 -0.055,-0.053c-0.023,-0.013 -0.048,-0.02 -0.076,-0.02c-0.045,0 -0.082,0.014 -0.11,0.043c-0.027,0.028 -0.041,0.063 -0.041,0.106c-0,0.044 0.013,0.08 0.04,0.108c0.027,0.027 0.064,0.041 0.111,0.041Z" style="fill:#00a86b;fill-rule:nonzero;"/></g><g transform="matrix(50,0,0,50,358.675,121.353)"><path d="M0.233,-0.689c0,0.023 -0.008,0.042 -0.024,0.058c-0.016,0.015 -0.035,0.023 -0.058,0.023c-0.023,0 -0.043,-0.008 -0.06,-0.023c-0.016,-0.016 -0.024,-0.035 -0.024,-0.058c-0,-0.022 0.008,-0.041 0.024,-0.056c0.017,-0.016 0.037,-0.024 0.06,-0.024c0.023,0 0.042,0.008 0.058,0.024c0.016,0.015 0.024,0.034 0.024,0.056Zm-0.157,0.14l0.15,0l0,0.549l-0.15,-0l-0,-0.549Z" style="fill:#00a86b;fill-rule:nonzero;"/></g><g transform="matrix(50,0,0,50,373.925,121.353)"><path d="M0.364,-0.56c0.076,0 0.131,0.02 0.165,0.061c0.035,0.041 0.052,0.099 0.052,0.174l-0,0.325l-0.153,0l-0,-0.325c-0,-0.074 -0.035,-0.111 -0.106,-0.111c-0.027,0 -0.052,0.011 -0.074,0.033c-0.022,0.021 -0.032,0.059 -0.031,0.112l-0,0.291l-0.149,0l-0,-0.55l0.149,0l-0,0.049c0.018,-0.018 0.041,-0.032 0.068,-0.043c0.027,-0.011 0.054,-0.016 0.079,-0.016Z" style="fill:#00a86b;fill-rule:nonzero;"/></g><g transform="matrix(50,0,0,50,406.825,121.353)"><path d="M0.342,0.014c-0.043,-0 -0.087,-0.009 -0.133,-0.027c-0.045,-0.018 -0.084,-0.049 -0.117,-0.092c-0.033,-0.042 -0.049,-0.099 -0.049,-0.168c-0,-0.069 0.016,-0.125 0.049,-0.168c0.033,-0.043 0.073,-0.073 0.119,-0.091c0.046,-0.018 0.09,-0.027 0.131,-0.027c0.048,0 0.094,0.011 0.137,0.032c0.043,0.021 0.079,0.053 0.106,0.094c0.028,0.041 0.043,0.09 0.044,0.147c-0,0.017 -0,0.032 -0.001,0.045c-0.001,0.013 -0.001,0.021 -0.002,0.024l-0.434,0c0.008,0.039 0.028,0.065 0.06,0.079c0.032,0.014 0.062,0.021 0.09,0.021c0.036,0 0.065,-0.006 0.086,-0.019c0.021,-0.013 0.04,-0.028 0.055,-0.045l0.116,0.067c-0.063,0.085 -0.148,0.128 -0.257,0.128Zm-0.001,-0.442c-0.041,0 -0.075,0.01 -0.101,0.031c-0.026,0.02 -0.041,0.045 -0.044,0.074l0.275,0c-0.002,-0.017 -0.009,-0.034 -0.02,-0.05c-0.011,-0.016 -0.027,-0.029 -0.046,-0.039c-0.019,-0.011 -0.04,-0.016 -0.064,-0.016Z" style="fill:#00a86b;fill-rule:nonzero;"/></g></g></svg>